<svg xmlns="http://www.w3.org/2000/svg" xmlns:xlink="http://www.w3.org/1999/xlink" width="500" zoomAndPan="magnify" viewBox="0 0 375 374.999991" height="500" preserveAspectRatio="xMidYMid meet" version="1.0"><defs><g/><clipPath id="c7a6174095"><path d="M 101.101562 172.398438 L 132.605469 172.398438 L 132.605469 202.601562 L 101.101562 202.601562 Z M 101.101562 172.398438 " clip-rule="nonzero"/></clipPath><clipPath id="e5a0abf3b3"><path d="M 116.074219 187.4375 L 116.074219 202.601562 C 107.65625 202.28125 101.101562 195.664062 101.101562 187.4375 C 101.101562 179.273438 107.65625 172.589844 116.074219 172.398438 L 116.074219 187.5625 Z M 116.074219 186.921875 L 116.074219 187.050781 C 116.074219 183.066406 117.746094 179.402344 119.609375 176.765625 C 121.472656 174.195312 123.980469 172.523438 127 172.398438 L 127 202.601562 C 123.980469 202.347656 121.472656 200.738281 119.609375 198.167969 C 117.746094 195.535156 116.074219 191.871094 116.074219 187.820312 Z M 127 187.4375 C 127 183.257812 128.09375 179.402344 129.1875 176.703125 C 129.765625 175.351562 130.40625 174.261719 131.113281 173.488281 C 131.691406 172.910156 132.269531 172.523438 132.59375 172.460938 L 132.59375 202.601562 C 132.269531 202.347656 131.5 202.023438 131.113281 201.382812 C 130.40625 200.675781 129.765625 199.582031 129.1875 198.234375 C 128.15625 195.664062 127 192.128906 127 188.269531 Z M 127 187.4375 " clip-rule="nonzero"/></clipPath><clipPath id="fd8523b8cc"><path d="M 0.101562 0.398438 L 31.605469 0.398438 L 31.605469 30.601562 L 0.101562 30.601562 Z M 0.101562 0.398438 " clip-rule="nonzero"/></clipPath><clipPath id="0582b64b44"><path d="M 15.074219 15.4375 L 15.074219 30.601562 C 6.65625 30.28125 0.101562 23.664062 0.101562 15.4375 C 0.101562 7.273438 6.65625 0.589844 15.074219 0.398438 L 15.074219 15.5625 Z M 15.074219 14.921875 L 15.074219 15.050781 C 15.074219 11.066406 16.746094 7.402344 18.609375 4.765625 C 20.472656 2.195312 22.980469 0.523438 26 0.398438 L 26 30.601562 C 22.980469 30.347656 20.472656 28.738281 18.609375 26.167969 C 16.746094 23.535156 15.074219 19.871094 15.074219 15.820312 Z M 26 15.4375 C 26 11.257812 27.09375 7.402344 28.1875 4.703125 C 28.765625 3.351562 29.40625 2.261719 30.113281 1.488281 C 30.691406 0.910156 31.269531 0.523438 31.59375 0.460938 L 31.59375 30.601562 C 31.269531 30.347656 30.5 30.023438 30.113281 29.382812 C 29.40625 28.675781 28.765625 27.582031 28.1875 26.234375 C 27.15625 23.664062 26 20.128906 26 16.269531 Z M 26 15.4375 " clip-rule="nonzero"/></clipPath><clipPath id="ec68fa0544"><rect x="0" width="32" y="0" height="31"/></clipPath></defs><g clip-path="url(#c7a6174095)"><g clip-path="url(#e5a0abf3b3)"><g transform="matrix(1, 0, 0, 1, 101, 172)"><g clip-path="url(#ec68fa0544)"><g clip-path="url(#fd8523b8cc)"><g clip-path="url(#0582b64b44)"><path fill="#000000" d="M 0.101562 0.398438 L 31.605469 0.398438 L 31.605469 30.601562 L 0.101562 30.601562 Z M 0.101562 0.398438 " fill-opacity="1" fill-rule="nonzero"/></g></g></g></g></g></g><g fill="#000000" fill-opacity="1"><g transform="translate(132.592731, 199.499987)"><g><path d="M 26.125 -27.640625 C 29.050781 -27.640625 31.582031 -27.125 33.71875 -26.09375 C 35.851562 -25.070312 37.503906 -23.613281 38.671875 -21.71875 C 39.835938 -19.820312 40.40625 -17.554688 40.375 -14.921875 L 40.375 0 L 30.828125 0 L 30.828125 -13.921875 C 30.828125 -16.390625 30.066406 -18.316406 28.546875 -19.703125 C 27.035156 -21.097656 24.890625 -21.796875 22.109375 -21.796875 C 18.847656 -21.796875 16.273438 -20.941406 14.390625 -19.234375 C 12.515625 -17.535156 11.578125 -15.15625 11.578125 -12.09375 L 11.578125 0 L 2.09375 0 L 2.09375 -26.703125 L 10.375 -26.703125 L 11.375 -20.078125 L 11.421875 -20.078125 C 12.640625 -22.410156 14.523438 -24.253906 17.078125 -25.609375 C 19.640625 -26.960938 22.65625 -27.640625 26.125 -27.640625 Z M 26.125 -27.640625 "/></g></g></g><g fill="#000000" fill-opacity="1"><g transform="translate(164.2525, 199.499987)"><g><path d="M 22.109375 0.9375 C 17.941406 0.9375 14.289062 0.347656 11.15625 -0.828125 C 8.03125 -2.015625 5.601562 -3.6875 3.875 -5.84375 C 2.15625 -8 1.296875 -10.503906 1.296875 -13.359375 C 1.296875 -16.242188 2.15625 -18.753906 3.875 -20.890625 C 5.601562 -23.023438 8.03125 -24.679688 11.15625 -25.859375 C 14.289062 -27.046875 17.941406 -27.640625 22.109375 -27.640625 C 26.316406 -27.640625 29.984375 -27.046875 33.109375 -25.859375 C 36.242188 -24.679688 38.671875 -23.023438 40.390625 -20.890625 C 42.117188 -18.753906 42.984375 -16.242188 42.984375 -13.359375 C 42.984375 -10.503906 42.117188 -8 40.390625 -5.84375 C 38.671875 -3.6875 36.242188 -2.015625 33.109375 -0.828125 C 29.984375 0.347656 26.316406 0.9375 22.109375 0.9375 Z M 22.109375 -5.0625 C 25.554688 -5.0625 28.304688 -5.816406 30.359375 -7.328125 C 32.410156 -8.835938 33.4375 -10.847656 33.4375 -13.359375 C 33.4375 -15.859375 32.410156 -17.863281 30.359375 -19.375 C 28.304688 -20.882812 25.554688 -21.640625 22.109375 -21.640625 C 18.703125 -21.640625 15.972656 -20.882812 13.921875 -19.375 C 11.867188 -17.863281 10.84375 -15.859375 10.84375 -13.359375 C 10.84375 -10.847656 11.867188 -8.835938 13.921875 -7.328125 C 15.972656 -5.816406 18.703125 -5.0625 22.109375 -5.0625 Z M 22.109375 -5.0625 "/></g></g></g><g fill="#000000" fill-opacity="1"><g transform="translate(198.103, 199.499987)"><g><path d="M 15.015625 0 L 0 -26.703125 L 10.21875 -26.703125 L 21.078125 -6.15625 L 21.125 -6.15625 L 31.96875 -26.703125 L 42.1875 -26.703125 L 27.0625 0 Z M 15.015625 0 "/></g></g></g><g fill="#000000" fill-opacity="1"><g transform="translate(229.867093, 199.499987)"><g><path d="M 7.140625 -30.359375 C 5.546875 -30.359375 4.234375 -30.816406 3.203125 -31.734375 C 2.179688 -32.660156 1.671875 -33.851562 1.671875 -35.3125 C 1.671875 -36.769531 2.179688 -37.957031 3.203125 -38.875 C 4.234375 -39.800781 5.546875 -40.265625 7.140625 -40.265625 C 8.773438 -40.265625 10.101562 -39.800781 11.125 -38.875 C 12.15625 -37.957031 12.671875 -36.769531 12.671875 -35.3125 C 12.671875 -33.851562 12.15625 -32.660156 11.125 -31.734375 C 10.101562 -30.816406 8.773438 -30.359375 7.140625 -30.359375 Z M 2.40625 0 L 2.40625 -26.703125 L 11.9375 -26.703125 L 11.9375 0 Z M 2.40625 0 "/></g></g></g><g fill="#000000" fill-opacity="1"><g transform="translate(233.777642, 199.499987)"><g><path d="M 20.8125 0.9375 C 18.09375 0.9375 15.4375 0.675781 12.84375 0.15625 C 10.257812 -0.363281 7.929688 -1.078125 5.859375 -1.984375 C 3.796875 -2.890625 2.15625 -3.914062 0.9375 -5.0625 L 4.0625 -9.859375 C 5.039062 -8.847656 6.378906 -7.953125 8.078125 -7.171875 C 9.785156 -6.390625 11.691406 -5.769531 13.796875 -5.3125 C 15.898438 -4.863281 18.0625 -4.640625 20.28125 -4.640625 C 23.28125 -4.640625 25.585938 -4.914062 27.203125 -5.46875 C 28.816406 -6.03125 29.625 -6.765625 29.625 -7.671875 C 29.625 -8.460938 29.066406 -9.054688 27.953125 -9.453125 C 26.835938 -9.859375 25.203125 -10.164062 23.046875 -10.375 L 16.109375 -10.953125 C 12.015625 -11.265625 8.851562 -11.992188 6.625 -13.140625 C 4.394531 -14.285156 3.28125 -16.0625 3.28125 -18.46875 C 3.28125 -20.519531 3.992188 -22.222656 5.421875 -23.578125 C 6.847656 -24.929688 8.820312 -25.945312 11.34375 -26.625 C 13.863281 -27.300781 16.722656 -27.640625 19.921875 -27.640625 C 22.910156 -27.640625 25.78125 -27.238281 28.53125 -26.4375 C 31.28125 -25.644531 33.609375 -24.535156 35.515625 -23.109375 L 32.65625 -18.625 C 31.257812 -19.726562 29.382812 -20.632812 27.03125 -21.34375 C 24.6875 -22.0625 22.265625 -22.421875 19.765625 -22.421875 C 17.429688 -22.421875 15.472656 -22.171875 13.890625 -21.671875 C 12.316406 -21.171875 11.53125 -20.46875 11.53125 -19.5625 C 11.53125 -18.789062 12.015625 -18.234375 12.984375 -17.890625 C 13.960938 -17.546875 15.40625 -17.285156 17.3125 -17.109375 L 24.3125 -16.484375 C 28.71875 -16.128906 32.113281 -15.351562 34.5 -14.15625 C 36.882812 -12.957031 38.078125 -11.035156 38.078125 -8.390625 C 38.078125 -6.304688 37.328125 -4.566406 35.828125 -3.171875 C 34.335938 -1.785156 32.285156 -0.753906 29.671875 -0.078125 C 27.066406 0.597656 24.113281 0.9375 20.8125 0.9375 Z M 20.8125 0.9375 "/></g></g></g></svg>